<?xml version="1.0" encoding="UTF-8"?>
<svg xmlns="http://www.w3.org/2000/svg" xmlns:xlink="http://www.w3.org/1999/xlink" width="32pt" height="32pt" viewBox="0 0 32 32" version="1.1">
<g id="surface1137929">
<path style=" stroke:none;fill-rule:nonzero;fill:rgb(18.039216%,18.039216%,18.039216%);fill-opacity:1;" d="M 15 0.0078125 C 14.476562 0.0078125 13.953125 0.203125 13.5625 0.59375 L 0.59375 13.5625 C -0.195312 14.351562 -0.195312 15.648438 0.59375 16.4375 L 13.5625 29.40625 C 14.351562 30.1875 15.648438 30.1875 16.4375 29.40625 L 29.40625 16.4375 C 30.195312 15.648438 30.195312 14.351562 29.40625 13.5625 L 16.4375 0.59375 C 16.039062 0.203125 15.523438 0.0078125 15 0.0078125 Z M 14.976562 2.007812 C 14.992188 1.992188 15 1.992188 15.015625 2.007812 L 27.992188 14.984375 C 28.007812 15 28.007812 15.007812 27.992188 15.023438 L 15.03125 27.992188 C 15.007812 28.007812 15 28.007812 14.976562 27.992188 L 2.007812 15.023438 C 1.992188 15.007812 1.992188 15 2.007812 14.984375 L 10.78125 6.203125 L 12.875 8.28125 C 12.789062 8.515625 12.75 8.757812 12.75 9 C 12.75 9.851562 13.234375 10.632812 14 11.015625 L 14 19.734375 C 13.234375 20.117188 12.75 20.898438 12.75 21.75 C 12.75 22.992188 13.757812 24 15 24 C 16.242188 24 17.25 22.992188 17.25 21.75 C 17.25 20.898438 16.765625 20.117188 16 19.734375 L 16 11.414062 L 19.125 14.53125 C 19.039062 14.765625 19 15.007812 19 15.25 C 19 16.492188 20.007812 17.5 21.25 17.5 C 22.492188 17.5 23.5 16.492188 23.5 15.25 C 23.5 14.007812 22.492188 13 21.25 13 C 21.007812 13 20.765625 13.039062 20.53125 13.125 L 17.125 9.71875 C 17.210938 9.484375 17.25 9.242188 17.25 9 C 17.25 7.757812 16.242188 6.75 15 6.75 C 14.757812 6.75 14.515625 6.789062 14.28125 6.875 L 12.203125 4.78125 Z M 14.976562 2.007812 "/>
</g>
</svg>
