<?xml version="1.0" encoding="UTF-8"?>
<svg xmlns="http://www.w3.org/2000/svg" xmlns:xlink="http://www.w3.org/1999/xlink" width="64pt" height="64pt" viewBox="0 0 64 64" version="1.1">
<g id="surface1138573">
<path style=" stroke:none;fill-rule:nonzero;fill:rgb(18.039216%,18.039216%,18.039216%);fill-opacity:1;" d="M 27 7 C 26.449219 7 26 7.449219 26 8 L 26 15 L 11 15 C 10.449219 15 10 15.449219 10 16 L 10 23 L 3 23 C 2.449219 23 2 23.449219 2 24 L 2 31 L 1.324219 31 C 0.855469 31 0.449219 31.324219 0.347656 31.777344 C 0.269531 32.113281 -1.4375 40.003906 3.382812 46.59375 C 6.871094 51.367188 12.832031 54.152344 21.089844 54.863281 C 22.167969 54.957031 23.214844 55 24.234375 55 C 44.171875 55 52.164062 37.925781 53.710938 34.074219 C 61.550781 34.703125 63.914062 28.402344 63.9375 28.335938 C 64.078125 27.945312 63.964844 27.511719 63.652344 27.242188 C 60.570312 24.589844 57.539062 24.542969 55.453125 25.191406 C 55.664062 20.609375 50.855469 17.328125 50.621094 17.167969 C 50.398438 17.019531 50.128906 16.964844 49.871094 17.019531 C 49.609375 17.070312 49.378906 17.222656 49.234375 17.445312 C 45.144531 23.601562 46.785156 28.082031 47.769531 29.832031 C 46.191406 31.03125 44.148438 31.003906 44.097656 31 L 44 31 L 44 24 C 44 23.449219 43.550781 23 43 23 L 36 23 L 36 8 C 36 7.449219 35.550781 7 35 7 Z M 28 9 L 34 9 L 34 15 L 28 15 Z M 12 17 L 26 17 L 26 23 L 20 23 L 20 20 C 20 19.449219 19.550781 19 19 19 C 18.449219 19 18 19.449219 18 20 L 18 23 L 12 23 Z M 28 17 L 34 17 L 34 31 L 28 31 L 28 25 L 31 25 C 31.550781 25 32 24.550781 32 24 C 32 23.449219 31.550781 23 31 23 L 28 23 Z M 50.328125 19.46875 C 51.742188 20.683594 54.371094 23.476562 53.117188 26.628906 C 52.953125 27.046875 53.085938 27.519531 53.441406 27.792969 C 53.800781 28.066406 54.300781 28.0625 54.65625 27.792969 C 54.792969 27.6875 57.878906 25.417969 61.757812 28.289062 C 60.996094 29.667969 58.648438 32.738281 53.183594 32.007812 C 52.703125 31.941406 52.25 32.230469 52.101562 32.6875 C 52.03125 32.898438 45.164062 53 24.210938 52.996094 C 23.257812 52.996094 22.273438 52.957031 21.257812 52.871094 C 13.613281 52.210938 8.144531 49.707031 5.007812 45.429688 C 1.546875 40.710938 1.898438 35.042969 2.167969 33 L 43 33 C 43.007812 33 43.011719 32.996094 43.019531 32.996094 L 44.066406 32.996094 C 44.214844 33.003906 47.578125 33.074219 49.804688 30.675781 C 50.148438 30.3125 50.164062 29.746094 49.84375 29.359375 C 49.8125 29.320312 46.804688 25.5625 50.328125 19.46875 Z M 4 25 L 10 25 L 10 31 L 4 31 Z M 12 25 L 18 25 L 18 31 L 12 31 Z M 20 25 L 26 25 L 26 31 L 20 31 Z M 36 25 L 42 25 L 42 31 L 36 31 Z M 12.5 38 C 11.121094 38 10 39.121094 10 40.5 C 10 41.878906 11.121094 43 12.5 43 C 13.878906 43 15 41.878906 15 40.5 C 15 39.121094 13.878906 38 12.5 38 Z M 42.289062 38.511719 C 42.03125 38.53125 41.785156 38.648438 41.605469 38.859375 C 41.25 39.28125 41.300781 39.914062 41.722656 40.269531 L 43.246094 41.5625 C 43.433594 41.722656 43.664062 41.800781 43.894531 41.800781 C 44.175781 41.800781 44.457031 41.679688 44.65625 41.445312 C 45.011719 41.023438 44.960938 40.394531 44.542969 40.035156 L 43.015625 38.742188 C 42.804688 38.566406 42.542969 38.488281 42.289062 38.507812 Z M 39.011719 41.910156 C 38.753906 41.882812 38.492188 41.953125 38.277344 42.128906 C 37.847656 42.472656 37.78125 43.101562 38.132812 43.53125 L 39.390625 45.085938 C 39.585938 45.332031 39.875 45.457031 40.167969 45.457031 C 40.386719 45.457031 40.609375 45.382812 40.792969 45.230469 C 41.222656 44.886719 41.289062 44.253906 40.941406 43.824219 L 39.683594 42.273438 C 39.507812 42.058594 39.265625 41.933594 39.011719 41.90625 Z M 34.792969 44.539062 C 34.664062 44.546875 34.535156 44.582031 34.410156 44.648438 C 33.917969 44.898438 33.722656 45.5 33.972656 45.992188 L 34.882812 47.777344 C 35.058594 48.121094 35.410156 48.320312 35.773438 48.320312 C 35.925781 48.320312 36.082031 48.285156 36.226562 48.214844 C 36.71875 47.960938 36.914062 47.359375 36.664062 46.867188 L 35.757812 45.085938 C 35.570312 44.71875 35.183594 44.511719 34.792969 44.539062 Z M 30.507812 46.246094 C 30.378906 46.226562 30.242188 46.234375 30.109375 46.269531 C 29.574219 46.40625 29.253906 46.949219 29.394531 47.484375 L 29.894531 49.421875 C 30.007812 49.871094 30.414062 50.171875 30.859375 50.171875 C 30.941406 50.171875 31.027344 50.164062 31.109375 50.140625 C 31.644531 50.003906 31.964844 49.457031 31.828125 48.921875 L 31.328125 46.984375 C 31.226562 46.582031 30.890625 46.304688 30.507812 46.246094 Z M 25.53125 46.949219 C 24.980469 46.980469 24.554688 47.449219 24.582031 48 L 24.683594 49.996094 C 24.710938 50.53125 25.15625 50.949219 25.683594 50.949219 C 25.699219 50.949219 25.71875 50.945312 25.734375 50.945312 C 26.285156 50.917969 26.710938 50.449219 26.683594 49.894531 L 26.578125 47.898438 C 26.550781 47.347656 26.074219 46.925781 25.53125 46.949219 Z M 25.53125 46.949219 "/>
</g>
</svg>
