<?xml version="1.0" encoding="UTF-8"?>
<svg xmlns="http://www.w3.org/2000/svg" xmlns:xlink="http://www.w3.org/1999/xlink" width="64pt" height="64pt" viewBox="0 0 64 64" version="1.1">
<g id="surface1139321">
<path style=" stroke:none;fill-rule:nonzero;fill:rgb(18.039216%,18.039216%,18.039216%);fill-opacity:1;" d="M 32 5.765625 L 6 18.765625 L 6 45.234375 L 32 58.234375 L 58 45.234375 L 58 18.765625 Z M 32 10.234375 L 54 21.234375 L 54 42.765625 L 32 53.765625 L 10 42.765625 L 10 21.234375 Z M 26 20 C 19.398438 20 14 25.398438 14 32 C 14 38.601562 19.398438 44 26 44 C 29 44 31.804688 42.796875 33.804688 41 L 30.398438 38.601562 C 29.195312 39.398438 27.601562 40 26 40 C 21.601562 40 18 36.398438 18 32 C 18 27.601562 21.601562 24 26 24 C 27.601562 24 29.195312 24.601562 30.398438 25.398438 L 33.804688 23 C 31.804688 21.203125 29 20 26 20 Z M 36 24 L 36 26 L 34 26 L 34 30 L 36 30 L 36 34 L 34 34 L 34 38 L 36 38 L 36 40 L 40 40 L 40 38 L 44 38 L 44 40 L 48 40 L 48 38 L 50 38 L 50 34 L 48 34 L 48 30 L 50 30 L 50 26 L 48 26 L 48 24 L 44 24 L 44 26 L 40 26 L 40 24 Z M 40 30 L 44 30 L 44 34 L 40 34 Z M 40 30 "/>
</g>
</svg>
